<?xml version="1.0" encoding="UTF-8" standalone="no"?>
<!DOCTYPE svg PUBLIC "-//W3C//DTD SVG 1.1//EN"
 "http://www.w3.org/Graphics/SVG/1.1/DTD/svg11.dtd">
<!-- Generated by graphviz version 2.40.1 (20161225.0304)
 -->
<!-- Title: %3 Pages: 1 -->
<svg width="564pt" height="254pt"
 viewBox="0.00 0.00 564.48 254.00" xmlns="http://www.w3.org/2000/svg" xmlns:xlink="http://www.w3.org/1999/xlink">
<g id="graph0" class="graph" transform="scale(1 1) rotate(0) translate(4 250)">
<title>%3</title>
<polygon fill="#ffffff" stroke="transparent" points="-4,4 -4,-250 560.4833,-250 560.4833,4 -4,4"/>
<g id="clust2" class="cluster">
<title>cluster81</title>
<path fill="none" stroke="#000000" d="M178.2428,-8C178.2428,-8 346.2428,-8 346.2428,-8 352.2428,-8 358.2428,-14 358.2428,-20 358.2428,-20 358.2428,-71 358.2428,-71 358.2428,-77 352.2428,-83 346.2428,-83 346.2428,-83 178.2428,-83 178.2428,-83 172.2428,-83 166.2428,-77 166.2428,-71 166.2428,-71 166.2428,-20 166.2428,-20 166.2428,-14 172.2428,-8 178.2428,-8"/>
<text text-anchor="middle" x="342.2428" y="-15.8" font-family="Times,serif" font-size="14.00" fill="#000000">81</text>
</g>
<g id="clust1" class="cluster">
<title>cluster4</title>
<path fill="none" stroke="#000000" d="M185.2428,-91C185.2428,-91 319.2428,-91 319.2428,-91 325.2428,-91 331.2428,-97 331.2428,-103 331.2428,-103 331.2428,-226 331.2428,-226 331.2428,-232 325.2428,-238 319.2428,-238 319.2428,-238 185.2428,-238 185.2428,-238 179.2428,-238 173.2428,-232 173.2428,-226 173.2428,-226 173.2428,-103 173.2428,-103 173.2428,-97 179.2428,-91 185.2428,-91"/>
<text text-anchor="middle" x="319.2428" y="-98.8" font-family="Times,serif" font-size="14.00" fill="#000000">4</text>
</g>
<!-- mu_beta -->
<g id="node1" class="node">
<title>mu_beta</title>
<ellipse fill="none" stroke="#000000" cx="81.2428" cy="-212" rx="81.4863" ry="18"/>
<text text-anchor="middle" x="81.2428" y="-208.3" font-family="Times,serif" font-size="14.00" fill="#000000">mu_beta ~ Normal</text>
</g>
<!-- beta -->
<g id="node5" class="node">
<title>beta</title>
<polygon fill="none" stroke="#000000" points="319.7428,-158 188.7428,-158 188.7428,-122 319.7428,-122 319.7428,-158"/>
<text text-anchor="middle" x="254.2428" y="-136.3" font-family="Times,serif" font-size="14.00" fill="#000000">beta ~ Deterministic</text>
</g>
<!-- mu_beta&#45;&gt;beta -->
<g id="edge2" class="edge">
<title>mu_beta&#45;&gt;beta</title>
<path fill="none" stroke="#000000" d="M119.6371,-196.0209C143.6633,-186.0215 174.9498,-173.0006 201.3123,-162.0289"/>
<polygon fill="#000000" stroke="#000000" points="202.892,-165.1625 210.7795,-158.0888 200.2023,-158.6999 202.892,-165.1625"/>
</g>
<!-- sigma_beta -->
<g id="node2" class="node">
<title>sigma_beta</title>
<ellipse fill="none" stroke="#000000" cx="449.2428" cy="-212" rx="107.4815" ry="18"/>
<text text-anchor="middle" x="449.2428" y="-208.3" font-family="Times,serif" font-size="14.00" fill="#000000">sigma_beta ~ HalfCauchy</text>
</g>
<!-- sigma_beta&#45;&gt;beta -->
<g id="edge3" class="edge">
<title>sigma_beta&#45;&gt;beta</title>
<path fill="none" stroke="#000000" d="M404.5059,-195.4817C377.3307,-185.4479 342.33,-172.5245 312.9466,-161.6752"/>
<polygon fill="#000000" stroke="#000000" points="313.8098,-158.2631 303.2165,-158.0826 311.3851,-164.8297 313.8098,-158.2631"/>
</g>
<!-- alpha -->
<g id="node3" class="node">
<title>alpha</title>
<ellipse fill="none" stroke="#000000" cx="408.2428" cy="-140" rx="68.7879" ry="18"/>
<text text-anchor="middle" x="408.2428" y="-136.3" font-family="Times,serif" font-size="14.00" fill="#000000">alpha ~ Normal</text>
</g>
<!-- outcome -->
<g id="node6" class="node">
<title>outcome</title>
<ellipse fill="#d3d3d3" stroke="#000000" cx="262.2428" cy="-57" rx="87.9851" ry="18"/>
<text text-anchor="middle" x="262.2428" y="-53.3" font-family="Times,serif" font-size="14.00" fill="#000000">outcome ~ Bernoulli</text>
</g>
<!-- alpha&#45;&gt;outcome -->
<g id="edge5" class="edge">
<title>alpha&#45;&gt;outcome</title>
<path fill="none" stroke="#000000" d="M384.8335,-122.9288C370.7959,-113.0394 352.3937,-100.6728 335.2428,-91 327.1047,-86.4103 318.2409,-81.8998 309.5847,-77.7401"/>
<polygon fill="#000000" stroke="#000000" points="310.8559,-74.4701 300.3176,-73.3768 307.874,-80.8032 310.8559,-74.4701"/>
</g>
<!-- beta_t -->
<g id="node4" class="node">
<title>beta_t</title>
<ellipse fill="none" stroke="#000000" cx="252.2428" cy="-212" rx="71.4873" ry="18"/>
<text text-anchor="middle" x="252.2428" y="-208.3" font-family="Times,serif" font-size="14.00" fill="#000000">beta_t ~ Normal</text>
</g>
<!-- beta_t&#45;&gt;beta -->
<g id="edge1" class="edge">
<title>beta_t&#45;&gt;beta</title>
<path fill="none" stroke="#000000" d="M252.7475,-193.8314C252.9614,-186.131 253.2157,-176.9743 253.4534,-168.4166"/>
<polygon fill="#000000" stroke="#000000" points="256.9522,-168.5066 253.7313,-158.4133 249.9549,-168.3122 256.9522,-168.5066"/>
</g>
<!-- beta&#45;&gt;outcome -->
<g id="edge4" class="edge">
<title>beta&#45;&gt;outcome</title>
<path fill="none" stroke="#000000" d="M255.9787,-121.9902C257.0094,-111.2963 258.3392,-97.4994 259.5083,-85.3706"/>
<polygon fill="#000000" stroke="#000000" points="263.007,-85.5509 260.4827,-75.2612 256.0393,-84.8793 263.007,-85.5509"/>
</g>
</g>
</svg>
