<?xml version="1.0" encoding="UTF-8" standalone="no"?>
<!DOCTYPE svg PUBLIC "-//W3C//DTD SVG 1.1//EN"
 "http://www.w3.org/Graphics/SVG/1.1/DTD/svg11.dtd">
<!-- Generated by graphviz version 2.40.1 (20161225.0304)
 -->
<!-- Title: %3 Pages: 1 -->
<svg width="1415pt" height="171pt"
 viewBox="0.00 0.00 1415.34 171.00" xmlns="http://www.w3.org/2000/svg" xmlns:xlink="http://www.w3.org/1999/xlink">
<g id="graph0" class="graph" transform="scale(1 1) rotate(0) translate(4 167)">
<title>%3</title>
<polygon fill="#ffffff" stroke="transparent" points="-4,4 -4,-167 1411.3374,-167 1411.3374,4 -4,4"/>
<g id="clust1" class="cluster">
<title>cluster81</title>
<path fill="none" stroke="#000000" d="M168.4435,-8C168.4435,-8 771.4435,-8 771.4435,-8 777.4435,-8 783.4435,-14 783.4435,-20 783.4435,-20 783.4435,-143 783.4435,-143 783.4435,-149 777.4435,-155 771.4435,-155 771.4435,-155 168.4435,-155 168.4435,-155 162.4435,-155 156.4435,-149 156.4435,-143 156.4435,-143 156.4435,-20 156.4435,-20 156.4435,-14 162.4435,-8 168.4435,-8"/>
<text text-anchor="middle" x="767.4435" y="-15.8" font-family="Times,serif" font-size="14.00" fill="#000000">81</text>
</g>
<!-- b_bmi -->
<g id="node1" class="node">
<title>b_bmi</title>
<ellipse fill="none" stroke="#000000" cx="73.4435" cy="-129" rx="73.387" ry="18"/>
<text text-anchor="middle" x="73.4435" y="-125.3" font-family="Times,serif" font-size="14.00" fill="#000000">b_bmi ~ Normal</text>
</g>
<!-- outcome -->
<g id="node8" class="node">
<title>outcome</title>
<ellipse fill="#d3d3d3" stroke="#000000" cx="687.4435" cy="-57" rx="87.9851" ry="18"/>
<text text-anchor="middle" x="687.4435" y="-53.3" font-family="Times,serif" font-size="14.00" fill="#000000">outcome ~ Bernoulli</text>
</g>
<!-- b_bmi&#45;&gt;outcome -->
<g id="edge3" class="edge">
<title>b_bmi&#45;&gt;outcome</title>
<path fill="none" stroke="#000000" d="M125.5328,-116.1757C134.4724,-114.2494 143.6979,-112.4321 152.4435,-111 305.7268,-85.9 485.7532,-70.6163 593.0114,-62.9916"/>
<polygon fill="#000000" stroke="#000000" points="593.4311,-66.4709 603.1608,-62.2776 592.9398,-59.4881 593.4311,-66.4709"/>
</g>
<!-- b_age -->
<g id="node2" class="node">
<title>b_age</title>
<ellipse fill="none" stroke="#000000" cx="864.4435" cy="-129" rx="71.4873" ry="18"/>
<text text-anchor="middle" x="864.4435" y="-125.3" font-family="Times,serif" font-size="14.00" fill="#000000">b_age ~ Normal</text>
</g>
<!-- b_age&#45;&gt;outcome -->
<g id="edge4" class="edge">
<title>b_age&#45;&gt;outcome</title>
<path fill="none" stroke="#000000" d="M826.4725,-113.5542C800.189,-102.8626 764.9633,-88.5335 736.5465,-76.9741"/>
<polygon fill="#000000" stroke="#000000" points="737.7751,-73.6954 727.1933,-73.1694 735.1375,-80.1795 737.7751,-73.6954"/>
</g>
<!-- b_res -->
<g id="node3" class="node">
<title>b_res</title>
<ellipse fill="none" stroke="#000000" cx="1022.4435" cy="-129" rx="68.7879" ry="18"/>
<text text-anchor="middle" x="1022.4435" y="-125.3" font-family="Times,serif" font-size="14.00" fill="#000000">b_res ~ Normal</text>
</g>
<!-- b_res&#45;&gt;outcome -->
<g id="edge7" class="edge">
<title>b_res&#45;&gt;outcome</title>
<path fill="none" stroke="#000000" d="M970.8692,-116.9474C962.0595,-114.9318 952.9937,-112.8846 944.4435,-111 882.2496,-97.2912 811.4096,-82.465 759.8766,-71.8226"/>
<polygon fill="#000000" stroke="#000000" points="760.3366,-68.3438 749.8357,-69.7514 758.9225,-75.1995 760.3366,-68.3438"/>
</g>
<!-- b_glu -->
<g id="node4" class="node">
<title>b_glu</title>
<ellipse fill="none" stroke="#000000" cx="1180.4435" cy="-129" rx="70.6878" ry="18"/>
<text text-anchor="middle" x="1180.4435" y="-125.3" font-family="Times,serif" font-size="14.00" fill="#000000">b_glu ~ Normal</text>
</g>
<!-- b_glu&#45;&gt;outcome -->
<g id="edge8" class="edge">
<title>b_glu&#45;&gt;outcome</title>
<path fill="none" stroke="#000000" d="M1128.5121,-116.5926C1119.1964,-114.5735 1109.5546,-112.6172 1100.4435,-111 989.2648,-91.2665 860.0552,-75.5153 776.1769,-66.2303"/>
<polygon fill="#000000" stroke="#000000" points="776.4996,-62.7448 766.1768,-65.1302 775.7341,-69.7028 776.4996,-62.7448"/>
</g>
<!-- alpha -->
<g id="node5" class="node">
<title>alpha</title>
<ellipse fill="none" stroke="#000000" cx="1338.4435" cy="-129" rx="68.7879" ry="18"/>
<text text-anchor="middle" x="1338.4435" y="-125.3" font-family="Times,serif" font-size="14.00" fill="#000000">alpha ~ Normal</text>
</g>
<!-- alpha&#45;&gt;outcome -->
<g id="edge9" class="edge">
<title>alpha&#45;&gt;outcome</title>
<path fill="none" stroke="#000000" d="M1288.7055,-116.4849C1279.3586,-114.4286 1269.6354,-112.487 1260.4435,-111 1093.6029,-84.0101 897.0873,-69.1119 782.9456,-62.1095"/>
<polygon fill="#000000" stroke="#000000" points="783.0325,-58.6084 772.839,-61.4969 782.6089,-65.5956 783.0325,-58.6084"/>
</g>
<!-- glucose -->
<g id="node6" class="node">
<title>glucose</title>
<polygon fill="#d3d3d3" stroke="#000000" points="774.9435,-147 623.9435,-147 623.9435,-111 774.9435,-111 774.9435,-147"/>
<text text-anchor="middle" x="699.4435" y="-125.3" font-family="Times,serif" font-size="14.00" fill="#000000">glucose ~ Deterministic</text>
</g>
<!-- glucose&#45;&gt;outcome -->
<g id="edge1" class="edge">
<title>glucose&#45;&gt;outcome</title>
<path fill="none" stroke="#000000" d="M696.4154,-110.8314C695.132,-103.131 693.6059,-93.9743 692.1796,-85.4166"/>
<polygon fill="#000000" stroke="#000000" points="695.6088,-84.7018 690.5124,-75.4133 688.7041,-85.8526 695.6088,-84.7018"/>
</g>
<!-- age -->
<g id="node7" class="node">
<title>age</title>
<polygon fill="#d3d3d3" stroke="#000000" points="605.9435,-147 478.9435,-147 478.9435,-111 605.9435,-111 605.9435,-147"/>
<text text-anchor="middle" x="542.4435" y="-125.3" font-family="Times,serif" font-size="14.00" fill="#000000">age ~ Deterministic</text>
</g>
<!-- age&#45;&gt;outcome -->
<g id="edge2" class="edge">
<title>age&#45;&gt;outcome</title>
<path fill="none" stroke="#000000" d="M579.0331,-110.8314C599.0575,-100.8882 623.9716,-88.5171 644.8649,-78.1425"/>
<polygon fill="#000000" stroke="#000000" points="646.4473,-81.2645 653.8473,-73.6822 643.3341,-74.9949 646.4473,-81.2645"/>
</g>
<!-- bmi -->
<g id="node9" class="node">
<title>bmi</title>
<polygon fill="#d3d3d3" stroke="#000000" points="460.4435,-147 330.4435,-147 330.4435,-111 460.4435,-111 460.4435,-147"/>
<text text-anchor="middle" x="395.4435" y="-125.3" font-family="Times,serif" font-size="14.00" fill="#000000">bmi ~ Deterministic</text>
</g>
<!-- bmi&#45;&gt;outcome -->
<g id="edge5" class="edge">
<title>bmi&#45;&gt;outcome</title>
<path fill="none" stroke="#000000" d="M460.6105,-112.9314C508.3149,-101.1687 572.8316,-85.2605 620.8636,-73.417"/>
<polygon fill="#000000" stroke="#000000" points="621.9796,-76.7467 630.8509,-70.9543 620.3037,-69.9502 621.9796,-76.7467"/>
</g>
<!-- resistin -->
<g id="node10" class="node">
<title>resistin</title>
<polygon fill="#d3d3d3" stroke="#000000" points="311.9435,-147 164.9435,-147 164.9435,-111 311.9435,-111 311.9435,-147"/>
<text text-anchor="middle" x="238.4435" y="-125.3" font-family="Times,serif" font-size="14.00" fill="#000000">resistin ~ Deterministic</text>
</g>
<!-- resistin&#45;&gt;outcome -->
<g id="edge6" class="edge">
<title>resistin&#45;&gt;outcome</title>
<path fill="none" stroke="#000000" d="M312.1584,-112.7451C315.2921,-112.139 318.3971,-111.5544 321.4435,-111 417.4046,-93.5358 528.3061,-77.7895 602.6564,-67.8682"/>
<polygon fill="#000000" stroke="#000000" points="603.4476,-71.2939 612.8996,-66.5074 602.5257,-64.3549 603.4476,-71.2939"/>
</g>
</g>
</svg>
