<?xml version="1.0" encoding="UTF-8" standalone="no"?>
<!DOCTYPE svg PUBLIC "-//W3C//DTD SVG 1.1//EN"
 "http://www.w3.org/Graphics/SVG/1.1/DTD/svg11.dtd">
<!-- Generated by graphviz version 2.40.1 (20161225.0304)
 -->
<!-- Title: %3 Pages: 1 -->
<svg width="482pt" height="171pt"
 viewBox="0.00 0.00 481.59 171.00" xmlns="http://www.w3.org/2000/svg" xmlns:xlink="http://www.w3.org/1999/xlink">
<g id="graph0" class="graph" transform="scale(1 1) rotate(0) translate(4 167)">
<title>%3</title>
<polygon fill="#ffffff" stroke="transparent" points="-4,4 -4,-167 477.5882,-167 477.5882,4 -4,4"/>
<g id="clust1" class="cluster">
<title>cluster81</title>
<path fill="none" stroke="#000000" d="M147.6943,-8C147.6943,-8 315.6943,-8 315.6943,-8 321.6943,-8 327.6943,-14 327.6943,-20 327.6943,-20 327.6943,-143 327.6943,-143 327.6943,-149 321.6943,-155 315.6943,-155 315.6943,-155 147.6943,-155 147.6943,-155 141.6943,-155 135.6943,-149 135.6943,-143 135.6943,-143 135.6943,-20 135.6943,-20 135.6943,-14 141.6943,-8 147.6943,-8"/>
<text text-anchor="middle" x="311.6943" y="-15.8" font-family="Times,serif" font-size="14.00" fill="#000000">81</text>
</g>
<!-- beta -->
<g id="node1" class="node">
<title>beta</title>
<ellipse fill="none" stroke="#000000" cx="63.6943" cy="-129" rx="63.8893" ry="18"/>
<text text-anchor="middle" x="63.6943" y="-125.3" font-family="Times,serif" font-size="14.00" fill="#000000">beta ~ Normal</text>
</g>
<!-- outcome -->
<g id="node4" class="node">
<title>outcome</title>
<ellipse fill="#d3d3d3" stroke="#000000" cx="231.6943" cy="-57" rx="87.9851" ry="18"/>
<text text-anchor="middle" x="231.6943" y="-53.3" font-family="Times,serif" font-size="14.00" fill="#000000">outcome ~ Bernoulli</text>
</g>
<!-- beta&#45;&gt;outcome -->
<g id="edge2" class="edge">
<title>beta&#45;&gt;outcome</title>
<path fill="none" stroke="#000000" d="M98.9127,-113.9064C123.7005,-103.2831 157.1613,-88.9427 184.2912,-77.3156"/>
<polygon fill="#000000" stroke="#000000" points="185.7861,-80.4829 193.5988,-73.3267 183.0286,-74.0489 185.7861,-80.4829"/>
</g>
<!-- alpha -->
<g id="node2" class="node">
<title>alpha</title>
<ellipse fill="none" stroke="#000000" cx="404.6943" cy="-129" rx="68.7879" ry="18"/>
<text text-anchor="middle" x="404.6943" y="-125.3" font-family="Times,serif" font-size="14.00" fill="#000000">alpha ~ Normal</text>
</g>
<!-- alpha&#45;&gt;outcome -->
<g id="edge3" class="edge">
<title>alpha&#45;&gt;outcome</title>
<path fill="none" stroke="#000000" d="M368.0055,-113.7307C342.453,-103.0961 308.1034,-88.8003 280.2792,-77.2203"/>
<polygon fill="#000000" stroke="#000000" points="281.3118,-73.8591 270.7346,-73.248 278.6221,-80.3217 281.3118,-73.8591"/>
</g>
<!-- glucose -->
<g id="node3" class="node">
<title>glucose</title>
<polygon fill="#d3d3d3" stroke="#000000" points="307.1943,-147 156.1943,-147 156.1943,-111 307.1943,-111 307.1943,-147"/>
<text text-anchor="middle" x="231.6943" y="-125.3" font-family="Times,serif" font-size="14.00" fill="#000000">glucose ~ Deterministic</text>
</g>
<!-- glucose&#45;&gt;outcome -->
<g id="edge1" class="edge">
<title>glucose&#45;&gt;outcome</title>
<path fill="none" stroke="#000000" d="M231.6943,-110.8314C231.6943,-103.131 231.6943,-93.9743 231.6943,-85.4166"/>
<polygon fill="#000000" stroke="#000000" points="235.1944,-85.4132 231.6943,-75.4133 228.1944,-85.4133 235.1944,-85.4132"/>
</g>
</g>
</svg>
